<?xml version="1.0" encoding="UTF-8" standalone="no"?>
<svg
   xmlns:dc="http://purl.org/dc/elements/1.1/"
   xmlns:cc="http://creativecommons.org/ns#"
   xmlns:rdf="http://www.w3.org/1999/02/22-rdf-syntax-ns#"
   xmlns:svg="http://www.w3.org/2000/svg"
   xmlns="http://www.w3.org/2000/svg"
   viewBox="0 0 500 500"
   height="500"
   width="500"
   xml:space="preserve"
   id="svg2"
   version="1.1"><metadata
     id="metadata8"><rdf:RDF><cc:Work
         rdf:about=""><dc:format>image/svg+xml</dc:format><dc:type
           rdf:resource="http://purl.org/dc/dcmitype/StillImage" /></cc:Work></rdf:RDF></metadata><defs
     id="defs6"><clipPath
       id="clipPath14"
       clipPathUnits="userSpaceOnUse"><path
         id="path12"
         d="M 0,8.039989 H 375 V 383.03998 H 0 Z" /></clipPath><clipPath
       id="clipPath24"
       clipPathUnits="userSpaceOnUse"><path
         style="clip-rule:evenodd"
         id="path22"
         d="M 0,0 H 1562.5 V 1562.5 H 0 Z" /></clipPath><clipPath
       id="clipPath36"
       clipPathUnits="userSpaceOnUse"><path
         style="clip-rule:evenodd"
         id="path34"
         d="M 0,0 H 1562.5 V 1562.5 H 0 Z" /></clipPath><clipPath
       id="clipPath48"
       clipPathUnits="userSpaceOnUse"><path
         id="path46"
         d="M 0,0 H 1562.5 V 1593.75 H 0 Z" /></clipPath><clipPath
       id="clipPath54"
       clipPathUnits="userSpaceOnUse"><path
         id="path52"
         d="M 0,0 H 1562.5 V 1562.5 H 0 Z" /></clipPath><clipPath
       id="clipPath60"
       clipPathUnits="userSpaceOnUse"><path
         id="path58"
         d="M 0,0 H 1562.5 V 1562.5 H 0 Z" /></clipPath><clipPath
       id="clipPath66"
       clipPathUnits="userSpaceOnUse"><path
         id="path64"
         d="M 117.96571,635.56946 371.43353,673.22754 333.77545,926.69531 80.30764,889.03729 Z" /></clipPath><clipPath
       id="clipPath72"
       clipPathUnits="userSpaceOnUse"><path
         id="path70"
         d="M 117.96571,635.56946 371.43353,673.22754 333.77545,926.69531 80.30764,889.03729 Z" /></clipPath><clipPath
       id="clipPath78"
       clipPathUnits="userSpaceOnUse"><path
         id="path76"
         d="M 117.96571,635.56946 371.43353,673.22754 333.77545,926.69531 80.30764,889.03729 Z" /></clipPath><clipPath
       id="clipPath98"
       clipPathUnits="userSpaceOnUse"><path
         style="clip-rule:evenodd"
         id="path96"
         d="M 0,0 H 1562.5 V 1562.5 H 0 Z" /></clipPath></defs><g
     clip-path="url(#clipPath14)"
     transform="matrix(1.3333333,0,0,-1.3333333,0,510.71997)"
     id="g10"><g
       transform="matrix(0.31999998,0,0,0.31999998,0,9.434666e-6)"
       id="g16"><g
         id="g18"><g
           clip-path="url(#clipPath24)"
           id="g20"><g
             transform="scale(3.125)"
             id="g26"><path
               id="path28"
               style="fill:#ffffff;fill-opacity:1;fill-rule:nonzero;stroke:none"
               d="M 0,0 H 500 V 500 H 0 Z" /></g></g></g><g
         id="g30"><g
           clip-path="url(#clipPath36)"
           id="g32"><g
             transform="scale(3.125)"
             id="g38"><path
               id="path40"
               style="fill:#ffffff;fill-opacity:1;fill-rule:nonzero;stroke:none"
               d="M 0,0 H 500 V 500 H 0 Z" /></g></g></g><g
         id="g42"><g
           clip-path="url(#clipPath48)"
           id="g44"><g
             clip-path="url(#clipPath54)"
             id="g50"><g
               clip-path="url(#clipPath60)"
               id="g56"><g
                 clip-path="url(#clipPath66)"
                 id="g62"><g
                   clip-path="url(#clipPath72)"
                   id="g68"><g
                     clip-path="url(#clipPath78)"
                     id="g74"><g
                       transform="matrix(10.561158,1.5690863,-1.5690863,10.561158,117.96571,635.56946)"
                       id="g80"><path
                         id="path82"
                         style="fill:none;stroke:#000000;stroke-width:1;stroke-linecap:butt;stroke-linejoin:miter;stroke-miterlimit:10;stroke-dasharray:none;stroke-opacity:1"
                         d="M 12,3 10.088,8.8129997 C 9.98878,9.1146698 9.8268929,9.3777819 9.6023378,9.6023369 9.3777838,9.8268909 9.1146717,9.9887781 8.8130007,10.087999 L 3,12 8.8129997,13.912 c 0.3016701,0.09922 0.5647822,0.261108 0.7893372,0.485662 0.224554,0.224555 0.3864412,0.487667 0.4856621,0.789337 L 12,21 13.912,15.187 c 0.09922,-0.301669 0.261108,-0.564782 0.485662,-0.789337 0.224555,-0.224554 0.487667,-0.386441 0.789337,-0.485662 L 21,12 15.187,10.088 C 14.885331,9.98878 14.622218,9.8268919 14.397663,9.6023369 14.173108,9.3777828 14.011221,9.1146708 13.912001,8.8130007 Z" /><path
                         id="path84"
                         style="fill:none;stroke:#000000;stroke-width:1;stroke-linecap:butt;stroke-linejoin:miter;stroke-miterlimit:10;stroke-dasharray:none;stroke-opacity:1"
                         d="M 5,3 V 7" /><path
                         id="path86"
                         style="fill:none;stroke:#000000;stroke-width:1;stroke-linecap:butt;stroke-linejoin:miter;stroke-miterlimit:10;stroke-dasharray:none;stroke-opacity:1"
                         d="m 19,17 v 4" /><path
                         id="path88"
                         style="fill:none;stroke:#000000;stroke-width:1;stroke-linecap:butt;stroke-linejoin:miter;stroke-miterlimit:10;stroke-dasharray:none;stroke-opacity:1"
                         d="M 3,5 H 7" /><path
                         id="path90"
                         style="fill:none;stroke:#000000;stroke-width:1;stroke-linecap:butt;stroke-linejoin:miter;stroke-miterlimit:10;stroke-dasharray:none;stroke-opacity:1"
                         d="m 17,19 h 4" /></g></g></g></g></g></g></g></g><g
         id="g92"><g
           clip-path="url(#clipPath98)"
           id="g94"><g
             transform="matrix(4.9240055,0,0,4.9240055,387.40018,599.06183)"
             id="g100"><text
               id="text104"
               style="font-style:italic;font-variant:normal;font-weight:bold;font-size:53.33000183px;font-family:FiraSans;-inkscape-font-specification:FiraSans-BoldItalic;writing-mode:lr-tb;fill:#000000;fill-opacity:1;fill-rule:nonzero;stroke:none"
               transform="translate(0,54)"><tspan
                 id="tspan102"
                 y="0"
                 x="0 25.224167 56.207764 86.711395 107.61598 137.79965 153.15813 181.58197 210.00581">sparklee!</tspan></text>
</g></g></g></g></g></svg>